<?xml version="1.0" encoding="UTF-8"?>
<svg version="1.1" xmlns="http://www.w3.org/2000/svg" width="32" height="32">
<path d="M0 0 C4.98669007 2.49334503 8.49675474 5.99350949 11 11 C11.54360446 15.95482094 11.56437074 19.87125852 9.3125 24.375 C6.14745126 27.96775803 2.78798338 31.69412413 -2.171875 32.23828125 C-8.01846537 32.40659218 -11.43192863 32.02425335 -16 28 C-20.39893104 23.00661882 -21.35676337 20.08984773 -21.28125 13.5390625 C-20.73016315 8.56397287 -17.99302299 5.87480597 -14.375 2.6875 C-9.71860985 -0.62098774 -5.60468123 -0.62082623 0 0 Z " fill="#5B30DB" transform="translate(21,0)"/>
<path d="M0 0 C3.5386994 1.65139305 4.81070153 2.71605229 7 6 C7.45971784 10.96495273 7.15065843 14.06167696 4 18 C0.57905881 20.56570589 -2.84773484 20.43708054 -7 20 C-10.38939556 17.86320715 -11.72582557 16.8225233 -13 13 C-13.38887761 8.80012182 -13.45908323 6.70392762 -11.125 3.125 C-7.53413571 -0.46586429 -5.00759994 -0.3394983 0 0 Z " fill="#27CB7C" transform="translate(19,6)"/>
<path d="M0 0 C3.5386994 1.65139305 4.81070153 2.71605229 7 6 C7.45971784 10.96495273 7.15065843 14.06167696 4 18 C0.57905881 20.56570589 -2.84773484 20.43708054 -7 20 C-10.38939556 17.86320715 -11.72582557 16.8225233 -13 13 C-13.38887761 8.80012182 -13.45908323 6.70392762 -11.125 3.125 C-7.53413571 -0.46586429 -5.00759994 -0.3394983 0 0 Z M-9 4 C-10.63102777 7.26205554 -10.51981506 10.43555389 -10 14 C-9.16666667 16.16666667 -9.16666667 16.16666667 -7 17 C-3.43555389 17.51981506 -0.26205554 17.63102777 3 16 C4.63102777 12.73794446 4.51981506 9.56444611 4 6 C3.16666667 3.83333333 3.16666667 3.83333333 1 3 C-2.56444611 2.48018494 -5.73794446 2.36897223 -9 4 Z " fill="#C9E7E2" transform="translate(19,6)"/>
<path d="M0 0 C4.99754367 -0.29397316 7.98418348 -0.0979156 12 3 C14.4294516 6.6441774 14.16179575 8.71241272 14 13 C13.01 13.495 13.01 13.495 12 14 C11.938125 12.9275 11.87625 11.855 11.8125 10.75 C11.31929204 6.94443639 11.31929204 6.94443639 8.8125 4.625 C5.79081505 2.87913759 3.45419117 2.32132011 0 2 C0 1.34 0 0.68 0 0 Z " fill="#E8EDF6" transform="translate(12,6)"/>
<path d="M0 0 C0.33 0 0.66 0 1 0 C2.5725938 8.15355699 2.5725938 8.15355699 0.5625 11.125 C-3.23633192 12.42216212 -6.06744454 11.7209685 -10 11 C-10 10.67 -10 10.34 -10 10 C-8.329375 9.814375 -8.329375 9.814375 -6.625 9.625 C-2.96896323 9.3534187 -2.96896323 9.3534187 -1 7 C-0.59952556 4.67724823 -0.2602896 2.34260643 0 0 Z " fill="#C0E8DC" transform="translate(23,13)"/>
<path d="M0 0 C1.258125 0.226875 2.51625 0.45375 3.8125 0.6875 C3.8125 1.0175 3.8125 1.3475 3.8125 1.6875 C2.69875 1.996875 1.585 2.30625 0.4375 2.625 C-2.9820155 3.51076483 -2.9820155 3.51076483 -5.1875 4.6875 C-5.8475 4.0275 -6.5075 3.3675 -7.1875 2.6875 C-5.15110924 -0.49436057 -3.4972064 -0.45804119 0 0 Z " fill="#C9E6E3" transform="translate(14.1875,7.3125)"/>
<path d="M0 0 C0.66 0 1.32 0 2 0 C1.67 3.3 1.34 6.6 1 10 C-1 8 -1 8 -1.1875 4.4375 C-1 1 -1 1 0 0 Z " fill="#F4F2FC" transform="translate(7,11)"/>
<path d="M0 0 C2.97 0.33 5.94 0.66 9 1 C7 3 7 3 3.375 3.125 C2.26125 3.08375 1.1475 3.0425 0 3 C0 2.01 0 1.02 0 0 Z " fill="#F4F2FC" transform="translate(12,23)"/>
<path d="M0 0 C0.66 0.33 1.32 0.66 2 1 C2 3.31 2 5.62 2 8 C1.01 8.495 1.01 8.495 0 9 C-0.87890625 2.84765625 -0.87890625 2.84765625 -1 1 C-0.67 0.67 -0.34 0.34 0 0 Z " fill="#F3F1FC" transform="translate(24,11)"/>
</svg>
