<svg width="50" height="16" viewBox="0 0 50 16" fill="none" xmlns="http://www.w3.org/2000/svg">
<mask id="mask0_211_5367" style="mask-type:alpha" maskUnits="userSpaceOnUse" x="0" y="0" width="50" height="16">
<path fill-rule="evenodd" clip-rule="evenodd" d="M0 0H50V15.8914H0L0 0Z" fill="white"/>
</mask>
<g mask="url(#mask0_211_5367)">
<path fill-rule="evenodd" clip-rule="evenodd" d="M42.0011 0H7.99892C3.58111 0 0 3.57812 0 7.99201C0 12.4059 3.48812 15.8916 7.90593 15.8916H41.9081C46.3257 15.8916 50 12.4059 50 7.99201C50 3.57812 46.4189 0 42.0011 0Z" fill="white"/>
<path fill-rule="evenodd" clip-rule="evenodd" d="M41.6894 13.9272C38.4023 13.9272 35.7281 11.2554 35.7281 7.97095C35.7281 4.68654 38.4023 2.01465 41.6894 2.01465C44.9763 2.01465 47.6507 4.68654 47.6507 7.97095C47.6507 11.2554 44.9763 13.9272 41.6894 13.9272Z" fill="#7C47E1"/>
<path fill-rule="evenodd" clip-rule="evenodd" d="M41.6882 12.0327C39.4426 12.0327 37.6223 10.2137 37.6223 7.97021C37.6223 5.72646 39.4426 3.90771 41.6882 3.90771C43.9336 3.90771 45.7541 5.72646 45.7541 7.97021C45.7541 10.2137 43.9336 12.0327 41.6882 12.0327Z" fill="#44CB86"/>
<path fill-rule="evenodd" clip-rule="evenodd" d="M21.5031 13.9264C18.1967 13.9264 15.5063 11.2384 15.5063 7.93465C15.5063 4.63045 18.1967 1.94287 21.5031 1.94287C22.986 1.94287 24.4096 2.48782 25.5113 3.47756C25.9065 3.83257 25.9388 4.44027 25.5838 4.8351C25.2284 5.23018 24.62 5.26228 24.2251 4.90726C23.4768 4.23537 22.5101 3.86539 21.5031 3.86539C19.2575 3.86539 17.4305 5.69066 17.4305 7.93465C17.4305 10.1784 19.2575 12.0039 21.5031 12.0039C22.5108 12.0039 23.478 11.6334 24.2263 10.9606C24.6212 10.6053 25.2297 10.6374 25.585 11.032C25.9405 11.4266 25.9084 12.0343 25.5137 12.3896C24.4113 13.3805 22.9872 13.9264 21.5031 13.9264Z" fill="#7C47E1"/>
<path fill-rule="evenodd" clip-rule="evenodd" d="M35.8096 12.1813L30.6488 7.85528L35.8096 3.61877C36.2164 3.2821 36.2726 2.67972 35.9354 2.2733C35.5982 1.86712 34.9951 1.81089 34.5886 2.1478L28.9971 6.78058V2.88341C28.9971 2.3556 28.5689 1.92794 28.0406 1.92794C27.5126 1.92794 27.0844 2.3556 27.0844 2.88341V12.9167C27.0844 13.4445 27.5126 13.8724 28.0406 13.8724C28.5689 13.8724 28.9971 13.4445 28.9971 12.9167V9.01951L34.5886 13.6523C34.7673 13.8002 34.9835 13.8724 35.1987 13.8724C35.4734 13.8724 35.7463 13.7546 35.9354 13.5268C36.2726 13.1206 36.2164 12.5182 35.8096 12.1813Z" fill="#7C47E1"/>
<path fill-rule="evenodd" clip-rule="evenodd" d="M8.30271 12.0096C6.07351 12.0096 4.26025 10.1976 4.26025 7.97048C4.26025 5.74314 6.07351 3.93116 8.30271 3.93116C10.5317 3.93116 12.3452 5.74314 12.3452 7.97048C12.3452 10.1976 10.5317 12.0096 8.30271 12.0096ZM14.2579 7.97052C14.2579 4.68949 11.5865 2.02002 8.30271 2.02002C5.01893 2.02002 2.34747 4.68949 2.34747 7.97052C2.34747 11.2513 5.01893 13.9208 8.30271 13.9208C9.86186 13.9208 11.2824 13.3189 12.3452 12.3357V12.9653C12.3452 13.4929 12.7734 13.9208 13.3017 13.9208C13.8297 13.9208 14.2579 13.4929 14.2579 12.9653V8.16143C14.2579 8.1426 14.2572 8.12474 14.2563 8.10785C14.2572 8.06223 14.2579 8.01638 14.2579 7.97052Z" fill="#7C47E1"/>
</g>
</svg>
